<svg width="24" height="24" viewBox="0 0 24 24" fill="none" xmlns="http://www.w3.org/2000/svg">
<path fill-rule="evenodd" clip-rule="evenodd" d="M5 1C2.79086 1 1 2.79086 1 5V19C1 21.2091 2.79086 23 5 23H19C21.2091 23 23 21.2091 23 19V5C23 2.79086 21.2091 1 19 1H5ZM4.66571 4.5C4.49035 4.56527 4.34239 4.69509 4.25603 4.8683C4.12914 5.1228 4.15711 5.42719 4.32826 5.65431L9.94244 13.1046L4.02653 19.4486C4.01102 19.4653 3.99642 19.4824 3.98271 19.5H6.02962L10.8591 14.321L14.5724 19.2488C14.6595 19.3643 14.7767 19.4506 14.9088 19.5H19.3311C19.5059 19.4346 19.6535 19.305 19.7396 19.1321C19.8665 18.8776 19.8386 18.5732 19.6674 18.3461L14.0532 10.8958L20.0173 4.5H17.9663L13.1365 9.67932L9.4232 4.75158C9.33591 4.63575 9.21824 4.54931 9.0857 4.5H4.66571ZM15.5454 18.0475L6.4315 5.95294H8.45028L17.5642 18.0475H15.5454Z" fill="#C1FF83"/>
</svg>
